<?xml version="1.0" encoding="UTF-8" standalone="no"?>
<svg
   width="48"
   height="48"
   version="1.1"
   id="svg830"
   sodipodi:docname="icon-view.svg"
   inkscape:version="1.1 (c4e8f9e, 2021-05-24)"
   xmlns:inkscape="http://www.inkscape.org/namespaces/inkscape"
   xmlns:sodipodi="http://sodipodi.sourceforge.net/DTD/sodipodi-0.dtd"
   xmlns="http://www.w3.org/2000/svg"
   xmlns:svg="http://www.w3.org/2000/svg">
  <defs
     id="defs834" />
  <sodipodi:namedview
     id="namedview832"
     pagecolor="#ffffff"
     bordercolor="#666666"
     borderopacity="1.0"
     inkscape:pageshadow="2"
     inkscape:pageopacity="0.0"
     inkscape:pagecheckerboard="0"
     showgrid="false"
     inkscape:zoom="14.083333"
     inkscape:cx="24"
     inkscape:cy="22.863905"
     inkscape:window-width="1920"
     inkscape:window-height="1027"
     inkscape:window-x="0"
     inkscape:window-y="25"
     inkscape:window-maximized="1"
     inkscape:current-layer="g828" />
  <g
     fill="none"
     fill-rule="evenodd"
     id="g828">
    <path
       d="M 0,0 H 48 V 48 H 0 Z"
       id="path824" />
    <path
       d="M 24,9 C 14,9 5.46,15.22 2,24 5.46,32.78 14,39 24,39 34.01,39 42.54,32.78 46,24 42.54,15.22 34.01,9 24,9 Z m 0,25 c -5.52,0 -10,-4.48 -10,-10 0,-5.52 4.48,-10 10,-10 5.52,0 10,4.48 10,10 0,5.52 -4.48,10 -10,10 z m 0,-16 c -3.31,0 -6,2.69 -6,6 0,3.31 2.69,6 6,6 3.31,0 6,-2.69 6,-6 0,-3.31 -2.69,-6 -6,-6 z"
       fill="#ffffff"
       fill-rule="nonzero"
       id="path826"
       style="fill:#000000;fill-opacity:1" />
  </g>
</svg>
